<?xml version="1.0"?>
<svg xmlns="http://www.w3.org/2000/svg" viewBox="0 0 512 512" width="100%" height="100%">
    <g id="Outline">
        <path
            d="M424,312V263.574a54.925,54.925,0,0,0,48-55.257,55.665,55.665,0,0,0-25.092-45.335L410.35,138.619c-.526-.35-1.056-.688-1.589-1.02l3.02-12.078a141.377,141.377,0,0,0-7.211-89.969,32.268,32.268,0,0,0-59.311,0q-1.535,3.573-2.866,7.25a140.3,140.3,0,0,0-15.479-17.522,32.849,32.849,0,0,0-30.76-8.252A32.31,32.31,0,0,0,272,48.31a140.612,140.612,0,0,0,28.82,85.284l19.749,25.879A62.829,62.829,0,0,0,312,191.27v27.786l-58.62,29.309L188.241,261.4A124.722,124.722,0,0,0,91.753,353.25,56.049,56.049,0,0,0,80,352H48a8,8,0,0,0-8,8v32a56.063,56.063,0,0,0,56,56h8.722c1.554,2.9,3.2,5.788,4.954,8.62l19.309,35.226A8,8,0,0,0,136,496H280a8,8,0,0,0,8-8V472a32.051,32.051,0,0,0-22.053-30.409l4.021-10.721,15.368-3.408,2.819,14.107a7.987,7.987,0,0,0,1.191,2.871l32,48A8,8,0,0,0,328,496h96a8,8,0,0,0,8-8v-8a32.036,32.036,0,0,0-32-32h-3.056L392,438.111v-50.4A105.8,105.8,0,0,0,424,312ZM359.966,41.854a16.27,16.27,0,0,1,29.9.008,125.388,125.388,0,0,1,6.391,79.778l-2.305,9.218A63.436,63.436,0,0,0,375.27,128q-1.368,0-2.745.062l-3.83-23.431a140.625,140.625,0,0,0-15.029-44.177A125.211,125.211,0,0,1,359.966,41.854ZM56,392V368H80a40.052,40.052,0,0,1,8.884,1,130.771,130.771,0,0,0,8.461,63H96A40.045,40.045,0,0,1,56,392Zm247.534,44.877L300.96,424l22.675-5.028,4.52,22.6a8,8,0,0,0,1.189,2.869L353.052,480h-20.77ZM400,464a16.019,16.019,0,0,1,16,16H372.281l-28.747-43.121-15.689-78.448-15.69,3.138,8.342,41.707-58.23,12.914a8,8,0,0,0-5.758,5L249.456,440H232.073a78.391,78.391,0,0,0-50.231-83.353l-11.033-4.137-5.618,14.98,11.033,4.138a62.389,62.389,0,0,1,39.857,67.24A7.939,7.939,0,0,0,216,440v8a8,8,0,0,0,8,8h32a16.019,16.019,0,0,1,16,16v8H140.738l-17.133-31.256c-.068-.124-.14-.247-.215-.368-2.419-3.9-4.649-7.914-6.627-11.917-11.439-23.172-15.285-47.957-11.124-71.674a108.722,108.722,0,0,1,85.74-87.7l66.19-13.24a7.975,7.975,0,0,0,2.009-.69l64-32A8,8,0,0,0,328,224V191.27a46.979,46.979,0,0,1,8.842-27.52,8,8,0,0,0-.142-9.514l-23.162-30.351A124.62,124.62,0,0,1,288,48.3a16.311,16.311,0,0,1,12.206-15.786,16.747,16.747,0,0,1,15.647,4.335,124.929,124.929,0,0,1,22.282,28.585c.025.048.052.094.078.141a124.784,124.784,0,0,1,14.692,41.64l5.05,30.9a8,8,0,0,0,9.261,6.593,46.955,46.955,0,0,1,28.555,3.989c.092.049.186.1.281.142a44.872,44.872,0,0,1,5.431,3.1l36.546,24.356A39.666,39.666,0,0,1,456,208.539,38.9,38.9,0,0,1,417.1,248H416a8,8,0,0,0-8,8v56a89.757,89.757,0,0,1-16,51.066V352H376v88a7.994,7.994,0,0,0,.845,3.578l8,16A8,8,0,0,0,392,464Z" />
        <circle cx="392" cy="192" r="16" />
    </g>
</svg>